<?xml version="1.0" encoding="utf-8"?>
<!-- Generator: Adobe Illustrator 21.1.0, SVG Export Plug-In . SVG Version: 6.00 Build 0)  -->
<svg version="1.1" id="Layer_1" xmlns="http://www.w3.org/2000/svg" xmlns:xlink="http://www.w3.org/1999/xlink" x="0px" y="0px"
	 viewBox="0 0 296.8 48.3" style="enable-background:new 0 0 296.8 48.3;" xml:space="preserve">
<style type="text/css">
	.st0{fill:#BCB4AF;}
	.st1{fill:#FFFFFF;}
	.st2{fill:none;stroke:#EF7622;stroke-width:3.14;stroke-miterlimit:10;}
	.st3{font-family:'SanFranciscoText-Medium';}
	.st4{font-size:16.3567px;}
</style>
<title>Asset 1</title>
<g id="Layer_2">
	<g id="Layer_1-2">
		<path class="st0" d="M84.8,8.4c-0.5-0.3-1-0.5-1.5-0.6c-0.6-0.2-1.3-0.2-1.9-0.2C80.1,7.5,78.9,8,78.1,9c-0.9,1.3-1.3,2.8-1.2,4.4
			v12.9h-4.5V3.7h4.5v2.1c1.2-1.7,3.1-2.6,5.2-2.6c0.8,0,1.5,0.1,2.3,0.2c0.6,0.1,1.1,0.4,1.6,0.7L84.8,8.4z"/>
		<path class="st0" d="M105.1,14.5c0,0.4,0,0.8,0,1.1s-0.1,0.7-0.1,0.9h-15c0.1,1,0.3,1.9,0.7,2.8c0.3,0.7,0.7,1.4,1.2,1.9
			c0.5,0.5,1.1,0.9,1.7,1.1c0.6,0.2,1.3,0.4,2,0.4c0.9,0,1.8-0.1,2.6-0.5c0.8-0.3,1.6-0.8,2.3-1.3l2.6,2.8c-1,0.9-2.1,1.7-3.3,2.2
			c-1.4,0.6-2.9,0.8-4.4,0.8c-1.3,0-2.6-0.3-3.8-0.8c-1.2-0.5-2.3-1.3-3.1-2.3c-0.9-1.1-1.6-2.4-2.1-3.7c-0.5-1.6-0.8-3.3-0.8-5
			c0-1.7,0.2-3.4,0.7-5.1c0.4-1.3,1.1-2.6,2-3.7c0.9-1,1.9-1.7,3.1-2.2c1.3-0.5,2.6-0.8,4-0.8c1.5,0,2.9,0.3,4.2,0.9
			c1.2,0.6,2.2,1.4,3,2.4c0.8,1.1,1.4,2.3,1.8,3.6C104.9,11.6,105.1,13.1,105.1,14.5z M100.6,12.9c-0.1-0.7-0.2-1.5-0.4-2.2
			c-0.2-0.7-0.5-1.3-1-1.8c-0.4-0.5-1-0.9-1.6-1.2c-0.7-0.3-1.5-0.5-2.3-0.4c-1.3-0.1-2.6,0.5-3.6,1.5c-1,1.2-1.5,2.7-1.6,4.2
			L100.6,12.9z"/>
		<path class="st1" d="M122.3,10.2c-0.8-0.8-1.7-1.5-2.7-2.1c-0.9-0.4-1.8-0.7-2.8-0.7c-1.5,0-3,0.7-3.9,2c-1,1.6-1.5,3.6-1.4,5.5
			c0,1,0.1,2.1,0.3,3.1c0.2,0.9,0.5,1.7,1,2.4c0.4,0.7,1,1.2,1.7,1.6c0.7,0.4,1.5,0.6,2.3,0.6c0.9,0,1.9-0.2,2.7-0.7
			c0.9-0.6,1.7-1.3,2.5-2.1l2.8,2.8c-0.4,0.6-0.9,1.1-1.4,1.6c-0.5,0.5-1.1,1-1.7,1.3c-0.7,0.4-1.4,0.7-2.2,0.9
			c-0.9,0.2-1.8,0.4-2.8,0.3c-1.3,0-2.6-0.3-3.8-0.8c-1.2-0.6-2.2-1.4-3.1-2.4c-0.9-1.1-1.6-2.3-2.1-3.7c-0.5-1.6-0.8-3.2-0.7-4.8
			c0-1.7,0.2-3.4,0.8-5c0.5-1.4,1.2-2.6,2.1-3.7c0.9-1,1.9-1.8,3.1-2.3c1.2-0.5,2.5-0.8,3.9-0.8c1.5,0,3.1,0.3,4.5,1
			c1.4,0.7,2.6,1.6,3.6,2.8L122.3,10.2z"/>
		<path class="st1" d="M146.3,14.9c0,1.7-0.2,3.4-0.8,5c-0.5,1.4-1.2,2.7-2.1,3.8c-0.9,1-2,1.8-3.2,2.3c-1.3,0.5-2.6,0.8-4,0.8
			c-2.7,0-5.4-1.1-7.1-3.2c-0.9-1.1-1.6-2.3-2.1-3.7c-0.5-1.6-0.8-3.2-0.8-4.8c0-1.7,0.2-3.4,0.8-5c0.4-1.3,1.2-2.6,2.1-3.7
			c0.9-1,2-1.8,3.2-2.3c1.3-0.5,2.6-0.8,4-0.8c2.8,0,5.4,1.1,7.2,3.2c0.9,1.1,1.7,2.3,2.1,3.7C146.1,11.6,146.3,13.2,146.3,14.9z
			 M141.8,15c0.1-2-0.4-3.9-1.5-5.5c-1-1.3-2.6-2.1-4.2-2c-1.6-0.1-3.1,0.7-4,2c-1,1.6-1.5,3.5-1.4,5.4c-0.1,2,0.4,4,1.6,5.7
			c1,1.3,2.5,2,4.1,2c0.8,0,1.6-0.2,2.3-0.6c0.7-0.4,1.3-1,1.8-1.6c0.5-0.7,0.9-1.5,1.1-2.4C141.7,17,141.8,16,141.8,15L141.8,15z"
			/>
		<path class="st1" d="M175.4,26.3V13.5c0-2.3-0.4-3.9-1.1-4.8c-0.8-1-2-1.5-3.3-1.4c-1.3-0.1-2.5,0.5-3.3,1.5
			c-0.8,1.3-1.1,2.8-1,4.3v13.2h-4.5V13.5c0-2.3-0.4-3.9-1.1-4.8c-0.8-1-2-1.5-3.3-1.4c-1.3-0.1-2.5,0.5-3.3,1.5
			c-0.8,1.3-1.1,2.8-1,4.3v13.2h-4.5V3.7h4.5v2.2c0.6-0.8,1.3-1.5,2.2-1.9c0.9-0.5,2-0.7,3-0.7c1.3-0.1,2.6,0.2,3.8,0.8
			c1,0.6,1.8,1.4,2.4,2.5c0.4-0.5,0.8-1,1.3-1.4c0.5-0.4,1-0.7,1.5-1c0.6-0.3,1.2-0.5,1.8-0.7c0.8-0.2,1.6-0.2,2.4-0.2
			c2.7,0,4.6,0.8,5.9,2.5s1.9,4.2,1.9,7.6v13L175.4,26.3z"/>
		<path class="st1" d="M209.9,26.3V13.5c0-2.3-0.4-3.9-1.1-4.8c-0.8-1-2-1.5-3.3-1.4c-1.3-0.1-2.5,0.5-3.3,1.5
			c-0.8,1.3-1.1,2.8-1,4.3v13.2h-4.5V13.5c0-2.3-0.4-3.9-1.1-4.8c-0.8-1-2-1.5-3.3-1.4c-1.3-0.1-2.5,0.5-3.3,1.5
			c-0.8,1.3-1.1,2.8-1,4.3v13.2h-4.5V3.7h4.5v2.2c0.6-0.8,1.3-1.5,2.2-1.9c1-0.5,2.1-0.7,3.1-0.7c1.3-0.1,2.6,0.2,3.8,0.8
			c1,0.6,1.8,1.4,2.4,2.5c0.4-0.5,0.8-1,1.3-1.4c0.5-0.4,1-0.7,1.5-1c0.6-0.3,1.2-0.5,1.8-0.7c0.8-0.2,1.6-0.2,2.4-0.2
			c2.7,0,4.6,0.8,5.9,2.5c1.2,1.7,1.9,4.2,1.9,7.6v13L209.9,26.3z"/>
		<path class="st1" d="M237.2,14.9c0,1.7-0.2,3.4-0.8,5c-0.5,1.4-1.2,2.7-2.1,3.8c-0.9,1-2,1.8-3.3,2.3c-1.3,0.5-2.6,0.8-4,0.8
			c-2.7,0-5.3-1.1-7.1-3.2c-0.9-1.1-1.6-2.3-2.1-3.7c-0.5-1.5-0.8-3.2-0.8-4.8c0-1.7,0.2-3.4,0.8-5c0.5-1.4,1.2-2.6,2.2-3.7
			c0.9-1,1.9-1.8,3.1-2.3c1.3-0.5,2.6-0.8,4-0.8c2.8,0,5.4,1.1,7.2,3.2c0.9,1.1,1.7,2.3,2.1,3.7C237,11.6,237.2,13.2,237.2,14.9z
			 M232.7,15c0.1-2-0.4-3.9-1.5-5.5c-1-1.3-2.6-2.1-4.2-2c-1.6-0.1-3.1,0.7-4,2c-1,1.6-1.5,3.5-1.4,5.4c-0.1,2,0.4,4,1.6,5.7
			c1,1.3,2.5,2,4.1,2c0.8,0,1.6-0.2,2.3-0.6c0.7-0.4,1.3-1,1.8-1.6c0.5-0.7,0.9-1.5,1.1-2.4C232.6,17,232.7,16,232.7,15L232.7,15z"
			/>
		<path class="st1" d="M253.8,26.3V13.5c0-2.3-0.4-3.9-1.2-4.8c-0.9-0.9-2.1-1.5-3.4-1.4c-1.3-0.1-2.6,0.5-3.4,1.5
			c-0.9,1.2-1.3,2.7-1.2,4.3v13.2h-4.5V3.7h4.5v2.2c0.6-0.9,1.4-1.5,2.4-1.9c1-0.5,2.2-0.7,3.3-0.7c2.3-0.1,4.5,0.8,6,2.5
			c1.3,1.7,2,4.2,2,7.6v13L253.8,26.3z"/>
		<path class="st1" d="M280.4,14.5c0,0.4,0,0.8,0,1.1s-0.1,0.7-0.1,0.9h-15c0.1,1,0.3,1.9,0.7,2.8c0.3,0.7,0.7,1.4,1.3,1.9
			c0.5,0.5,1.1,0.9,1.7,1.1c0.6,0.2,1.3,0.4,2,0.4c0.9,0,1.8-0.1,2.6-0.5c0.8-0.3,1.6-0.8,2.3-1.3l2.6,2.8c-1,0.9-2.1,1.7-3.4,2.2
			c-1.4,0.6-2.9,0.8-4.4,0.8c-1.3,0-2.6-0.2-3.7-0.8c-1.2-0.5-2.3-1.3-3.1-2.3c-0.9-1.1-1.7-2.3-2.1-3.7c-0.5-1.6-0.8-3.3-0.8-5
			c0-1.7,0.2-3.4,0.7-5.1c0.4-1.3,1.1-2.6,2-3.7c0.8-1,1.9-1.8,3.1-2.3c1.3-0.5,2.6-0.8,4-0.8c1.5,0,2.9,0.3,4.2,0.9
			c1.2,0.6,2.2,1.4,3,2.4c0.8,1.1,1.4,2.3,1.8,3.6C280.2,11.6,280.4,13.1,280.4,14.5z M275.9,12.9c-0.1-0.7-0.2-1.5-0.4-2.2
			c-0.2-0.7-0.5-1.3-1-1.8c-0.4-0.5-1-0.9-1.6-1.2c-0.7-0.3-1.5-0.5-2.4-0.4c-1.3,0-2.6,0.5-3.5,1.5c-1,1.2-1.5,2.7-1.6,4.2H275.9z"
			/>
		<path class="st1" d="M295.6,8.4c-0.5-0.3-1-0.5-1.5-0.6c-0.6-0.2-1.3-0.2-1.9-0.2c-1.3-0.1-2.5,0.5-3.3,1.5
			c-0.9,1.3-1.3,2.8-1.2,4.4v12.9h-4.5V3.7h4.5v2.1c1.2-1.7,3.1-2.6,5.2-2.6c0.8,0,1.5,0.1,2.3,0.2c0.6,0.1,1.1,0.4,1.6,0.7
			L295.6,8.4z"/>
		<path class="st2" d="M14.5,1.1c0,0-12.8,13.6,0,28.2"/>
		<path class="st2" d="M43.6,1.1c0,0,12.8,13.6,0,28.2"/>
		<path class="st2" d="M7.3,1.1c0,0-12.8,13.6,0,28.2"/>
		<path class="st2" d="M50.8,1.1c0,0,12.8,13.6,0,28.2"/>
		<circle class="st1" cx="17.4" cy="10.8" r="2.6"/>
		<circle class="st1" cx="24.8" cy="10.8" r="2.6"/>
		<circle class="st1" cx="32.4" cy="10.8" r="2.6"/>
		<circle class="st1" cx="39.9" cy="10.8" r="2.6"/>
		<circle class="st1" cx="17.4" cy="17.8" r="2.6"/>
		<circle class="st1" cx="24.8" cy="17.8" r="2.6"/>
		<circle class="st1" cx="32.4" cy="17.8" r="2.6"/>
		<circle class="st1" cx="39.9" cy="17.8" r="2.6"/>
	</g>
</g>
<text transform="matrix(1 0 0 1 252.21 45.9619)" class="st1 st3 st4">BETA</text>
</svg>
