<svg xmlns="http://www.w3.org/2000/svg" viewBox="0 0 296.76 30.27"><defs><style>.cls-1{fill:#bcb4af;}.cls-2{fill:#fff;}.cls-3{fill:none;stroke:#ef7622;stroke-miterlimit:10;stroke-width:3.14px;}</style></defs><title>Asset 1</title><g id="Layer_2" data-name="Layer 2"><g id="Layer_1-2" data-name="Layer 1"><path class="cls-1" d="M84.77,8.35a7.49,7.49,0,0,0-1.51-.6,7.16,7.16,0,0,0-1.89-.22A3.94,3.94,0,0,0,78.1,9a6.89,6.89,0,0,0-1.16,4.35V26.26H72.46V3.66h4.48V5.81A6.3,6.3,0,0,1,82.1,3.19a9,9,0,0,1,2.26.24,5.09,5.09,0,0,1,1.57.71Z"/><path class="cls-1" d="M105.13,14.51q0,.6,0,1.14c0,.36-.06.65-.09.88H90.07a9.29,9.29,0,0,0,.69,2.8A6.06,6.06,0,0,0,92,21.24a5.08,5.08,0,0,0,1.72,1.12,5.44,5.44,0,0,0,2,.37,7,7,0,0,0,2.6-.47,9.67,9.67,0,0,0,2.3-1.33l2.63,2.84A11.14,11.14,0,0,1,99.93,26a11.45,11.45,0,0,1-4.43.78A9.36,9.36,0,0,1,91.72,26a8.81,8.81,0,0,1-3.12-2.28A11,11,0,0,1,86.5,20a14.94,14.94,0,0,1-.77-5,16.06,16.06,0,0,1,.73-5.08,10.68,10.68,0,0,1,2-3.68A8.44,8.44,0,0,1,91.6,4a10.21,10.21,0,0,1,4-.78,9.19,9.19,0,0,1,4.2.9,8.54,8.54,0,0,1,3,2.45,10.62,10.62,0,0,1,1.76,3.62A16,16,0,0,1,105.13,14.51Zm-4.48-1.64a9.75,9.75,0,0,0-.41-2.2,5.22,5.22,0,0,0-1-1.81,4.6,4.6,0,0,0-1.61-1.23,5.53,5.53,0,0,0-2.35-.45,4.5,4.5,0,0,0-3.55,1.48,7.42,7.42,0,0,0-1.61,4.2Z"/><path class="cls-2" d="M122.26,10.16a10.47,10.47,0,0,0-2.69-2.09,6.14,6.14,0,0,0-2.82-.67,4.5,4.5,0,0,0-3.87,2,9.33,9.33,0,0,0-1.42,5.49A12.86,12.86,0,0,0,111.8,18a7.36,7.36,0,0,0,1,2.41,4.92,4.92,0,0,0,1.7,1.57,4.77,4.77,0,0,0,2.35.56,4.85,4.85,0,0,0,2.69-.71A14.49,14.49,0,0,0,122,19.72l2.84,2.8a13.75,13.75,0,0,1-1.42,1.61,9.49,9.49,0,0,1-1.74,1.33,9,9,0,0,1-2.17.93,10,10,0,0,1-2.75.34,8.94,8.94,0,0,1-3.85-.84,9.21,9.21,0,0,1-3.1-2.37,11.29,11.29,0,0,1-2.07-3.68A14.52,14.52,0,0,1,107,15a15,15,0,0,1,.77-5,11.3,11.3,0,0,1,2.11-3.72A8.89,8.89,0,0,1,113,4a9.5,9.5,0,0,1,3.87-.8,9.92,9.92,0,0,1,4.46,1A11.07,11.07,0,0,1,124.89,7Z"/><path class="cls-2" d="M146.28,14.85a15.14,15.14,0,0,1-.77,5,10.87,10.87,0,0,1-2.15,3.75,9.2,9.2,0,0,1-3.23,2.32,10.12,10.12,0,0,1-4,.8A9.14,9.14,0,0,1,129,23.5a11.33,11.33,0,0,1-2.09-3.7,14.52,14.52,0,0,1-.75-4.82,14.81,14.81,0,0,1,.77-5A11.09,11.09,0,0,1,129,6.31,9,9,0,0,1,132.23,4a9.86,9.86,0,0,1,4-.8,9.56,9.56,0,0,1,7.21,3.19,10.63,10.63,0,0,1,2.11,3.68A14.58,14.58,0,0,1,146.28,14.85Zm-4.48.13a9,9,0,0,0-1.53-5.53,5,5,0,0,0-4.24-2,4.61,4.61,0,0,0-4,2,9.18,9.18,0,0,0-1.44,5.4,9,9,0,0,0,1.55,5.7,5,5,0,0,0,4.09,2,4.44,4.44,0,0,0,2.28-.6,5.72,5.72,0,0,0,1.77-1.61,7.5,7.5,0,0,0,1.12-2.39A10.76,10.76,0,0,0,141.81,15Z"/><path class="cls-2" d="M175.42,26.26V13.47q0-3.44-1.07-4.82a3.87,3.87,0,0,0-3.26-1.38,3.71,3.71,0,0,0-3.28,1.51,7.39,7.39,0,0,0-1,4.26V26.26h-4.48V13.47q0-3.44-1.07-4.82A3.87,3.87,0,0,0,158,7.28a3.71,3.71,0,0,0-3.28,1.51,7.4,7.4,0,0,0-1,4.26V26.26h-4.48V3.66h4.48l0,2.15a5.83,5.83,0,0,1,2.24-1.94A6.93,6.93,0,0,1,159,3.19a7.68,7.68,0,0,1,3.81.84,6.21,6.21,0,0,1,2.39,2.47,10.69,10.69,0,0,1,1.27-1.38,7.2,7.2,0,0,1,1.49-1,7.72,7.72,0,0,1,1.83-.67,10.45,10.45,0,0,1,2.35-.24q4,0,5.87,2.54t1.9,7.58v13Z"/><path class="cls-2" d="M209.9,26.26V13.47q0-3.44-1.07-4.82a3.87,3.87,0,0,0-3.26-1.38,3.72,3.72,0,0,0-3.28,1.51,7.39,7.39,0,0,0-1,4.26V26.26h-4.48V13.47q0-3.44-1.07-4.82a3.87,3.87,0,0,0-3.26-1.38,3.71,3.71,0,0,0-3.28,1.51,7.39,7.39,0,0,0-1,4.26V26.26h-4.48V3.66h4.48l0,2.15a5.84,5.84,0,0,1,2.24-1.94,6.93,6.93,0,0,1,3.14-.69,7.69,7.69,0,0,1,3.81.84,6.22,6.22,0,0,1,2.39,2.47,10.62,10.62,0,0,1,1.27-1.38,7.22,7.22,0,0,1,1.49-1,7.71,7.71,0,0,1,1.83-.67,10.44,10.44,0,0,1,2.35-.24q4,0,5.87,2.54t1.9,7.58v13Z"/><path class="cls-2" d="M237.19,14.85a15.14,15.14,0,0,1-.77,5,10.87,10.87,0,0,1-2.15,3.75A9.22,9.22,0,0,1,231,25.94a10.13,10.13,0,0,1-4,.8,9.14,9.14,0,0,1-7.1-3.23,11.32,11.32,0,0,1-2.09-3.7A14.53,14.53,0,0,1,217,15a14.81,14.81,0,0,1,.78-5A11.08,11.08,0,0,1,220,6.31,9,9,0,0,1,223.14,4a9.85,9.85,0,0,1,4-.8,9.56,9.56,0,0,1,7.21,3.19,10.65,10.65,0,0,1,2.11,3.68A14.58,14.58,0,0,1,237.19,14.85Zm-4.48.13a9,9,0,0,0-1.53-5.53,5,5,0,0,0-4.24-2,4.61,4.61,0,0,0-4,2,9.18,9.18,0,0,0-1.44,5.4,9,9,0,0,0,1.55,5.7,5,5,0,0,0,4.09,2,4.44,4.44,0,0,0,2.28-.6,5.71,5.71,0,0,0,1.77-1.61,7.49,7.49,0,0,0,1.12-2.39A10.78,10.78,0,0,0,232.71,15Z"/><path class="cls-2" d="M253.8,26.26V13.47q0-3.44-1.22-4.82a4.32,4.32,0,0,0-3.41-1.38,4.12,4.12,0,0,0-3.43,1.51,6.69,6.69,0,0,0-1.2,4.26V26.26h-4.48V3.66h4.48l0,2.15a5.64,5.64,0,0,1,2.39-1.94,8,8,0,0,1,3.3-.69,7.28,7.28,0,0,1,6,2.54q2,2.54,2,7.58v13Z"/><path class="cls-2" d="M280.36,14.51q0,.6,0,1.14c0,.36-.06.65-.09.88H265.3a9.29,9.29,0,0,0,.69,2.8,6.05,6.05,0,0,0,1.29,1.92A5.08,5.08,0,0,0,269,22.36a5.44,5.44,0,0,0,2,.37,7,7,0,0,0,2.6-.47,9.68,9.68,0,0,0,2.3-1.33l2.63,2.84a11.14,11.14,0,0,1-3.36,2.2,11.45,11.45,0,0,1-4.43.78A9.36,9.36,0,0,1,267,26a8.81,8.81,0,0,1-3.12-2.28,11,11,0,0,1-2.11-3.7,14.94,14.94,0,0,1-.78-5,16.05,16.05,0,0,1,.73-5.08,10.67,10.67,0,0,1,2-3.68A8.43,8.43,0,0,1,266.83,4a10.22,10.22,0,0,1,4-.78,9.19,9.19,0,0,1,4.2.9,8.55,8.55,0,0,1,3,2.45,10.61,10.61,0,0,1,1.76,3.62A16,16,0,0,1,280.36,14.51Zm-4.48-1.64a9.72,9.72,0,0,0-.41-2.2,5.2,5.2,0,0,0-1-1.81,4.6,4.6,0,0,0-1.61-1.23,5.53,5.53,0,0,0-2.35-.45A4.5,4.5,0,0,0,267,8.67a7.42,7.42,0,0,0-1.62,4.2Z"/><path class="cls-2" d="M295.6,8.35a7.49,7.49,0,0,0-1.51-.6,7.16,7.16,0,0,0-1.89-.22A3.94,3.94,0,0,0,288.93,9a6.89,6.89,0,0,0-1.16,4.35V26.26h-4.48V3.66h4.48V5.81a6.31,6.31,0,0,1,5.17-2.63,9,9,0,0,1,2.26.24,5.08,5.08,0,0,1,1.57.71Z"/><path class="cls-3" d="M14.47,1.08s-12.8,13.6,0,28.16"/><path class="cls-3" d="M43.57,1.08s12.8,13.6,0,28.16"/><path class="cls-3" d="M7.26,1.08s-12.8,13.6,0,28.16"/><path class="cls-3" d="M50.78,1.08s12.8,13.6,0,28.16"/><circle class="cls-2" cx="17.4" cy="10.79" r="2.62"/><circle class="cls-2" cx="24.83" cy="10.79" r="2.62"/><circle class="cls-2" cx="32.42" cy="10.79" r="2.62"/><circle class="cls-2" cx="39.86" cy="10.79" r="2.62"/><circle class="cls-2" cx="17.4" cy="17.78" r="2.62"/><circle class="cls-2" cx="24.83" cy="17.78" r="2.62"/><circle class="cls-2" cx="32.42" cy="17.78" r="2.62"/><circle class="cls-2" cx="39.86" cy="17.78" r="2.62"/></g></g></svg>