<svg id="Layer_1" data-name="Layer 1" xmlns="http://www.w3.org/2000/svg" viewBox="0 0 279.64 279.6"><defs><style>.cls-1{fill:#ed742f;}.cls-2{fill:#fff;fill-rule:evenodd;}</style></defs><title>narrative_icon</title><ellipse class="cls-1" cx="139.82" cy="139.8" rx="139.82" ry="139.8"/><g id="_Group_" data-name="&lt;Group&gt;"><path id="_Path_" data-name="&lt;Path&gt;" class="cls-2" d="M236.5,114.18H178.58a2,2,0,1,0,0,4.07H236.5a2,2,0,1,0,0-4.07Z" transform="translate(-75.31 -4.08)"/><path id="_Path_2" data-name="&lt;Path&gt;" class="cls-2" d="M236.5,129.8H178.58a2,2,0,1,0,0,4.07H236.5a2,2,0,1,0,0-4.07Z" transform="translate(-75.31 -4.08)"/><path id="_Path_3" data-name="&lt;Path&gt;" class="cls-2" d="M238.54,147.45a2,2,0,0,0-2-2H178.58a2,2,0,1,0,0,4.07H236.5A2,2,0,0,0,238.54,147.45Z" transform="translate(-75.31 -4.08)"/></g><path class="cls-2" d="M250.48,218.27a6,6,0,0,0,4,0c2.21-.77,4.38-1.64,6.52-2.57,17.18-7.45,32.47-24.9,20-44.61-5.67-8.93-22-12.32-28.46-.62-6.46-11.69-22.79-8.3-28.46.62-12.51,19.71,2.78,37.16,20,44.61C246.11,216.63,248.28,217.5,250.48,218.27Z" transform="translate(-75.31 -4.08)"/><path class="cls-2" d="M216.57,196.71H167.26c-2.25,0-2.88-.62-2.88-2.85,0-24.4,0-68.62,0-93,0-.41,0-.82.07-1.32h11.68c5.16,0,8.66-3.47,8.66-8.6q0-5.21,0-10.42c0-.41,0-.82.07-1.32h62.85c2.44,0,3,.57,3,3,0,.34,0,44.79,0,79a18.77,18.77,0,0,1,1.74,1.31,18.74,18.74,0,0,1,3.24-2.22c0-32.67,0-77.24,0-77.57,0-5.06-3.48-8.5-8.6-8.5-17.56,0-41.76,0-59.32,0A9,9,0,0,0,181.07,77q-9.38,9.43-18.85,18.78a9.09,9.09,0,0,0-2.85,6.81c0,25.54,0,64.81,0,90.35,0,5.42,3.39,8.76,8.86,8.76h50.89A34,34,0,0,1,216.57,196.71Z" transform="translate(-75.31 -4.08)"/><path class="cls-2" d="M215.78,176.66H178.58a2,2,0,1,0,0,4.07h36.19A30.62,30.62,0,0,1,215.78,176.66Z" transform="translate(-75.31 -4.08)"/><path class="cls-2" d="M227.69,161H178.58a2,2,0,1,0,0,4.07H222.3A23.57,23.57,0,0,1,227.69,161Z" transform="translate(-75.31 -4.08)"/></svg>