<svg id="Layer_1" data-name="Layer 1" xmlns="http://www.w3.org/2000/svg" viewBox="0 0 282.66 282.66"><defs><style>.cls-1{fill:#ed742f;}.cls-2{fill:#fff;fill-rule:evenodd;}</style></defs><title>shared_responsibility_icon</title><circle class="cls-1" cx="141.33" cy="141.33" r="141.33"/><path class="cls-2" d="M252.6,160.84c-5.21-2.18-10.57-4-16.19-6.11a88.88,88.88,0,0,1-10.35,27.36,11.52,11.52,0,0,1-.28-1.39c-.44-5.59-.9-11.18-1.27-16.77a5.08,5.08,0,0,1,.5-2.27c.06-.14.14-.28.21-.42a3.15,3.15,0,0,0,2.75-3.11V156.9a3.16,3.16,0,0,0-3.15-3.15h-8a3.16,3.16,0,0,0-3.15,3.15v1.24a3.15,3.15,0,0,0,2.65,3.1c.86,2,.47,4.21.2,6.46-.45,3.82-.55,7.67-.8,11.51a12,12,0,0,1-.44,2.83A89.41,89.41,0,0,1,205,154.85c-2.27.79-4.43,1.5-6.55,2.29a102.63,102.63,0,0,0-10.15,3.94c-5.42,2.7-7.83,7.56-8.31,13.39-.23,2.75.18,17.57.39,18.16H261c.28-.77.66-20.17-1.29-24.7A13.21,13.21,0,0,0,252.6,160.84Z" transform="translate(-74.67 -3.09)"/><path class="cls-2" d="M200.82,128.56c.39.31.94.63,1,1a30.73,30.73,0,0,0,5.68,11.58c3.14,4.06,6.53,7.91,12.29,8,2.85,0,5.74-.1,8.11-1.9a27.91,27.91,0,0,0,8.38-9.81c1.41-2.85,2.56-5.82,3.61-8.23,1.18-.87,2.38-1.33,2.86-2.19a15.39,15.39,0,0,0,1.84-9.28c-.23-2.23-2.57-1.79-3.65-3-1.41-1.65.35-3.77.85-5.57a13.84,13.84,0,0,0,.38-3.75,16.45,16.45,0,0,0-.79-5.7c-3.66-9.85-15.44-10.76-24.21-10.32a17.3,17.3,0,0,0-6.76,1.4,7.37,7.37,0,0,0-4.23,5.18c-.35,2.25-1.35,3.36-3.26,4.57-1.61,1-3.58,1.87-4.42,3.71a5.89,5.89,0,0,0-.46,1.87,10.89,10.89,0,0,0,.73,5.12c.43,1.07,1.41,2.61,1.06,3.71a1.49,1.49,0,0,1-.78.87c-1.25.66-2.26.45-2.38,2.21a16.86,16.86,0,0,0,1.74,8.69C198.86,127.52,200,127.93,200.82,128.56Z" transform="translate(-74.67 -3.09)"/><path class="cls-2" d="M151,133a3.65,3.65,0,0,0,.1,1.8,3.45,3.45,0,0,0,2,1.55,33.6,33.6,0,0,0,5.74,2.06c1.17.27,3.74-.31,4.32,1.1a2.57,2.57,0,0,1-.64,2.41c-2.56,2.78-1.1,7.37,1.72,9.35a7.41,7.41,0,0,0,4.71,1.27,8.27,8.27,0,0,0,6.88-4.24c.82-1.6,1.43-4.44.18-6a4.24,4.24,0,0,1-.56-1.49c0-1.63-.46-1.68,1.29-2.11a60,60,0,0,1,6.15-.85,31.11,31.11,0,0,0,3.29-.58,1.44,1.44,0,0,0,.64-.29,1.52,1.52,0,0,0,.33-1.12c.06-3-.25-6.12.23-9,.5-3,1.28-6.06,1.86-9.09,1.09-5.77-1.12-12.33-4.5-17-4.07-5.59-11-7.76-17.74-7.2a15.92,15.92,0,0,0-6.55,1.72,19.2,19.2,0,0,0-5.26,4,25.32,25.32,0,0,0-5.76,12.06C147.91,118.68,151.77,125.64,151,133Z" transform="translate(-74.67 -3.09)"/><path class="cls-2" d="M255.15,121.24a2.51,2.51,0,0,0,2.84,2.25,24.89,24.89,0,0,0,8.31,13.63c2.51,2.08,8.15,2.43,10.68.42a23.61,23.61,0,0,0,8.37-12.6c.24-.9.4-1.68,1.66-1.7.45,0,1.14-.72,1.3-1.24.63-2.17,2.53-6.47.26-8.31-.31-.25-.69-.42-1-.7-.78-.73-.76-1.95-.7-3q.16-2.84.1-5.7a20.25,20.25,0,0,0-.61-5.15,8.27,8.27,0,0,0-2.73-4.33A11.05,11.05,0,0,0,278.1,93a41.67,41.67,0,0,0-13.39.55c-3.69.76-5.86,4.33-6.84,7.81-.77,2.73-.65,5.45-.91,8.23a12.92,12.92,0,0,1-.53,2.91c-.39,1.07-1.57,1.55-1.94,2.61a7,7,0,0,0,.1,2.62A30.77,30.77,0,0,0,255.15,121.24Z" transform="translate(-74.67 -3.09)"/><path class="cls-2" d="M298.73,152.59c0-2.13-.42-3.87-2.34-5-1.45-.83-2.94-1.6-4.45-2.31-.79-.37-9.3-3.71-9.28-3.79-1.43,7.13-3.43,13.93-7,20.3-.12-.69-.28-1.38-.34-2.08-.23-2.44-.52-4.89-.58-7.34a12.65,12.65,0,0,1,.56-3.31,2.67,2.67,0,0,0,1.89-2.41,2.93,2.93,0,0,0-3.15-2.63h-3.51a2.93,2.93,0,0,0-3.15,2.63,2.67,2.67,0,0,0,1.87,2.4c.79,2.32.18,4.76-.09,7.18-.11,1,0,1.93-.11,2.89s-.19,1.77-.29,2.65l-.46,0a76,76,0,0,1-6.59-20.33c-6.44,2.76-13.09,4.61-18.47,9.84l7.08,2.57c4.8,1.72,9.39,3.83,12.32,8.24a32.61,32.61,0,0,1,3.12,6.28,2,2,0,0,0,2.17,1.52h2.87c8.76,0,17.51,0,26.27.13,1.17,0,1.53-.65,1.64-1.73C299.22,163.05,298.77,157.84,298.73,152.59Z" transform="translate(-74.67 -3.09)"/><path class="cls-2" d="M190.44,154.11c2.41-.83,4.79-1.74,7.52-2.74-4.61-4.68-10.34-6-16.09-7.62,2.63,5.28,3.27,7.65,2.65,10-.66-1.08-1.23-2.08-1.88-3a6.13,6.13,0,0,0-1.33-1.37c-.88-.66-1.46-.66-2,.58a58.26,58.26,0,0,1-8.69,13.62c-.93,1.1-1.6,1.23-2.62.06a62.59,62.59,0,0,1-8.67-13.46c-.76-1.55-1.35-1.75-2.51-.46a43,43,0,0,0-2.77,3.82c-.74-2,.16-5.39,2.69-9.76-5.09,1.31-10,2.56-14.16,5.76-2.39,1.85-2.21,14.57-2.33,18.13h35.62C178.25,160.63,183.48,156.5,190.44,154.11Z" transform="translate(-74.67 -3.09)"/></svg>