<svg id="Layer_1" data-name="Layer 1" xmlns="http://www.w3.org/2000/svg" viewBox="0 0 279.64 279.64"><defs><style>.cls-1{fill:#ed742f;}.cls-2{fill:#fff;}</style></defs><title>toolkit_icon</title><circle class="cls-1" cx="139.82" cy="139.82" r="139.82"/><path class="cls-2" d="M282.45,188.18l-63.18-63-14.44-14.44L187.6,128,202,142.45l63.18,63a3.86,3.86,0,0,0,5.46,0l11.77-11.77A3.86,3.86,0,0,0,282.45,188.18Z" transform="translate(-76.02 -4.08)"/><path class="cls-2" d="M239.24,139.72l10.45-10.45a30.12,30.12,0,0,0,22.43-.11c12.58-4.48,18.66-29.84,14.32-39.8a3.15,3.15,0,0,0-5.12-.95l-21.47,21.47-8.22-8.22c4.95-4.95,22.38-23,22.38-23a2.89,2.89,0,0,0-.85-4.67,30,30,0,0,0-40.5,37.81L222,122.49Z" transform="translate(-76.02 -4.08)"/><path class="cls-2" d="M199.31,145.18l-11.24,11.24c-.13.13-7.16-1.9-8-2a31,31,0,0,0-8.74.35c-18.18,3.25-27.59,25.79-20.62,41.82a3.16,3.16,0,0,0,5.12.95s19.22-20.08,20.8-23l8.76,8.76c-3.35,3.35-21.74,23.62-21.74,23.62a2.89,2.89,0,0,0,.85,4.67A30,30,0,0,0,205,173.93l11.51-11.51Z" transform="translate(-76.02 -4.08)"/><path class="cls-2" d="M167,141.68a5.32,5.32,0,0,0,2.67-1.23c2.21-1.86,3.14-5.34.9-7.57l-1.78-1.78,6.76-6.76,1.78,1.78c4,4,8.29-1.6,11-4.34l10.53-10.53c2.69-2.69,8.32-6,6-10.57-.88-1.72-2.46-3-3.79-4.32-.17-.17-5.28-11.88,19.84-11.78-2.76-9.45-16.3-9.42-18.91-9.39A24.08,24.08,0,0,0,193.48,77c-.69.27-7.7,4.08-7.6,4.18l-.09-.09c-1.82-1.82-4.47-4-7.23-2.72-2.54,1.19-4.16,3.9-6.07,5.83-4.7,4.76-9.39,9.54-14.25,14.14a7.15,7.15,0,0,0-2.27,3.48c-.59,2.66,1.39,4.37,3.07,6l-6.76,6.76-1.79-1.78a5,5,0,0,0-6.11-.51c-2.78,1.65-3.92,5.65-1.48,8.09l16.91,16.91C161.84,139.31,163.8,142.13,167,141.68Z" transform="translate(-76.02 -4.08)"/></svg>